<?xml version="1.0" encoding="UTF-8"?>
<svg version="1.1" xmlns="http://www.w3.org/2000/svg" width="1024" height="1024">
<path d="M0 0 C1.8572168 0.00676758 1.8572168 0.00676758 3.75195312 0.01367188 C6.77218785 0.02533301 9.79231677 0.04169764 12.8125 0.0625 C12.8125 0.7225 12.8125 1.3825 12.8125 2.0625 C13.45832031 2.07667969 14.10414063 2.09085938 14.76953125 2.10546875 C21.75060474 2.45881994 28.25915691 3.7439714 35 5.5 C35.84989502 5.71744873 36.69979004 5.93489746 37.57543945 6.15893555 C38.36909912 6.37332275 39.16275879 6.58770996 39.98046875 6.80859375 C40.69485107 7.00122803 41.4092334 7.1938623 42.14526367 7.39233398 C43.8125 8.0625 43.8125 8.0625 44.8125 10.0625 C46.47405063 10.42046423 48.14212188 10.74829333 49.8125 11.0625 C51.89193339 11.8526313 53.95445321 12.68837814 56 13.5625 C57.04542969 14.0059375 58.09085938 14.449375 59.16796875 14.90625 C61.89038895 16.09655485 63.79967252 17.05212931 66.1171875 18.92578125 C68.64342096 20.92846198 71.18198548 22.58435316 73.9375 24.25 C79.98451515 28.05376759 85.39589043 32.41739565 90.8125 37.0625 C91.61945313 37.74570313 92.42640625 38.42890625 93.2578125 39.1328125 C121.57691996 63.61204098 137.52864872 100.4139208 140.4375 137.3125 C140.56795257 139.22880327 140.69499781 141.14535907 140.8125 143.0625 C142.7925 143.3925 144.7725 143.7225 146.8125 144.0625 C146.4825 144.7225 146.1525 145.3825 145.8125 146.0625 C146.90529266 146.06614563 147.99808533 146.06979126 149.12399292 146.07354736 C159.45178752 146.11058181 169.77928629 146.16844663 180.10685539 146.24640274 C185.41565005 146.28581412 190.72428041 146.31803371 196.03320312 146.33349609 C201.16219631 146.34870439 206.29073759 146.383224 211.41952896 146.43080902 C213.37056665 146.44557984 215.32166888 146.45353853 217.2727623 146.45438385 C236.9555737 146.47147897 236.9555737 146.47147897 244.8125 151.0625 C245.61259491 151.52771057 246.41268982 151.99292114 247.23703003 152.472229 C257.53933601 158.74719848 265.06197087 167.49161596 268.8125 179.0625 C270.76342951 188.0674499 271.40782873 197.20235634 272.03344727 206.37451172 C272.13999539 207.87395205 272.2470558 209.37335605 272.35458374 210.87272644 C272.58322017 214.07587553 272.80831372 217.27924587 273.03055 220.48284531 C273.38222812 225.55181638 273.74210153 230.6201862 274.10301208 235.68850708 C274.67272606 243.70237534 275.23714303 251.7166061 275.79920477 259.73101437 C276.80667247 274.09577571 277.82059626 288.46007942 278.84038967 302.82397091 C279.19768029 307.85990876 279.55179289 312.89605703 279.90331852 317.93240047 C280.12233649 321.06304127 280.34366554 324.19351575 280.5655632 327.32395363 C280.66775026 328.77267395 280.7689513 330.22146421 280.8690815 331.67032814 C281.00612043 333.65148632 281.14702094 335.63237624 281.2881012 337.61325073 C281.40449872 339.27398778 281.40449872 339.27398778 281.52324772 340.96827507 C281.76398368 344.02185106 281.76398368 344.02185106 282.31647205 346.84348774 C282.99207977 351.22789699 283.11244075 355.58669779 283.27334595 360.01594543 C283.75088532 371.63449685 284.55883478 383.21339581 285.43896484 394.80737305 C285.60200872 396.98710586 285.76476531 399.16686019 285.92726135 401.34663391 C286.27458701 405.99754062 286.62390817 410.6482913 286.97486496 415.2989254 C287.53346362 422.70114468 288.08749662 430.10370173 288.64102173 437.50630188 C289.4705492 448.59322918 290.30264707 459.67996135 291.13629182 470.76657978 C292.76057434 492.36806779 294.37974269 513.96993909 295.99734461 535.57192832 C296.54477375 542.88085667 297.09358399 550.18967962 297.6434747 557.49842316 C298.55562877 569.62414315 299.46021783 581.75039503 300.35503387 593.87740707 C300.65894924 597.99466006 300.96572432 602.11168489 301.27484894 606.22854996 C301.64323463 611.13950135 302.00447854 616.05093054 302.36053014 620.96279109 C302.49075376 622.74463931 302.62324405 624.52632386 302.75839114 626.30780542 C303.43843278 635.29298599 303.93919807 644.25582712 304.0196228 653.26835632 C304.03849688 654.41462044 304.03849688 654.41462044 304.05775225 655.58404142 C304.05862325 667.60069609 299.31184879 677.82316309 291.8125 687.0625 C291.18021484 687.91908203 291.18021484 687.91908203 290.53515625 688.79296875 C283.49369784 698.01561966 271.07452225 704.88912728 259.8125 707.0625 C255.48368911 707.49640204 251.15568132 707.81431821 246.8125 708.0625 C246.8125 708.7225 246.8125 709.3825 246.8125 710.0625 C245.8225 709.7325 244.8325 709.4025 243.8125 709.0625 C241.60160055 708.97891042 239.38823922 708.95518236 237.17578125 708.96484375 C235.87705078 708.96806641 234.57832031 708.97128906 233.24023438 708.97460938 C231.86848892 708.98296469 230.49674413 708.99142963 229.125 709 C227.74153805 709.00501665 226.35807437 709.00957927 224.97460938 709.01367188 C221.58719605 709.02547471 218.19986967 709.04193981 214.8125 709.0625 C215.1425 709.7225 215.4725 710.3825 215.8125 711.0625 C209.9375 710.1875 209.9375 710.1875 208.8125 709.0625 C208.4825 709.7225 208.1525 710.3825 207.8125 711.0625 C205.25 711.6875 205.25 711.6875 202.8125 712.0625 C202.4825 711.0725 202.1525 710.0825 201.8125 709.0625 C161.2225 709.0625 120.6325 709.0625 78.8125 709.0625 C78.8125 709.3925 78.8125 709.7225 78.8125 710.0625 C77.1625 710.0625 75.5125 710.0625 73.8125 710.0625 C73.8125 709.7325 73.8125 709.4025 73.8125 709.0625 C73.17973145 709.06773682 72.54696289 709.07297363 71.89501953 709.07836914 C58.49208271 709.17412172 45.18426954 709.00797865 31.8125 708.0625 C31.8125 709.0525 31.8125 710.0425 31.8125 711.0625 C29.8325 710.7325 27.8525 710.4025 25.8125 710.0625 C25.8125 709.7325 25.8125 709.4025 25.8125 709.0625 C-9.1675 709.0625 -44.1475 709.0625 -80.1875 709.0625 C-80.1875 709.7225 -80.1875 710.3825 -80.1875 711.0625 C-82.1675 710.7325 -84.1475 710.4025 -86.1875 710.0625 C-86.1875 709.7325 -86.1875 709.4025 -86.1875 709.0625 C-99.7175 709.0625 -113.2475 709.0625 -127.1875 709.0625 C-127.5175 709.7225 -127.8475 710.3825 -128.1875 711.0625 C-130.1675 711.0625 -132.1475 711.0625 -134.1875 711.0625 C-134.1875 710.4025 -134.1875 709.7425 -134.1875 709.0625 C-155.9675 709.0625 -177.7475 709.0625 -200.1875 709.0625 C-200.1875 709.7225 -200.1875 710.3825 -200.1875 711.0625 C-201.8375 711.3925 -203.4875 711.7225 -205.1875 712.0625 C-205.6825 710.5775 -205.6825 710.5775 -206.1875 709.0625 C-206.86020432 709.05441315 -207.53290863 709.04632629 -208.22599792 709.03799438 C-215.28390085 708.95134233 -222.34154227 708.85181904 -229.39916992 708.74511719 C-232.02640358 708.70704368 -234.65368553 708.67215481 -237.28100586 708.640625 C-241.07683473 708.59450139 -244.87233721 708.5365884 -248.66796875 708.4765625 C-249.82580368 708.46501129 -250.98363861 708.45346008 -252.17655945 708.44155884 C-269.85199925 708.12803294 -286.24659717 705.0471221 -299.1875 692.0625 C-311.30182756 678.35622555 -316.00902059 663.17884904 -314.97981262 645.07878113 C-314.7892572 642.1702006 -314.56008004 639.26557425 -314.32739258 636.36010742 C-314.20893697 634.73527704 -314.09187463 633.11034459 -313.97607231 631.48532295 C-313.72406167 627.99035604 -313.46244756 624.49629359 -313.19312096 621.00261879 C-312.75646887 615.33804636 -312.34121958 609.67201465 -311.92842102 604.00566101 C-311.33410913 595.87325345 -310.73033899 587.74159659 -310.12115479 579.61029053 C-309.19591674 567.24414706 -308.30535662 554.87563964 -307.42333984 542.50634766 C-307.27586604 540.43992051 -307.12837994 538.37349423 -306.98088169 536.30706882 C-306.75802046 533.18474992 -306.53516174 530.06243085 -306.31238419 526.94010597 C-305.47530599 515.21456207 -304.62869768 503.48970855 -303.78149414 491.76489258 C-303.62449044 489.59167962 -303.46748736 487.41846661 -303.31048489 485.24525356 C-303.07293028 481.9571734 -302.83536507 478.669094 -302.59776622 475.38101703 C-302.02717962 467.48407387 -301.45744761 459.58706936 -300.88815308 451.69003296 C-297.74599001 408.10394813 -294.60293708 364.51798178 -291.37962413 320.93781114 C-291.15811356 317.94178295 -290.93694807 314.94572934 -290.71580905 311.94967371 C-290.45300304 308.38920974 -290.19003228 304.82875795 -289.92700195 301.26831055 C-289.87683556 300.58921171 -289.82666916 299.91011286 -289.77498257 299.21043527 C-289.15407715 290.80794251 -288.5281976 282.40583525 -287.89754105 274.00406837 C-287.55081541 269.37380693 -287.20778511 264.74327696 -286.86569595 260.1126709 C-286.71148086 258.037131 -286.55559788 255.96171413 -286.39779282 253.88644409 C-285.67348715 244.3580206 -284.99803089 234.92971415 -285.23448181 225.36808777 C-285.1875 223.0625 -285.1875 223.0625 -284.1875 221.0625 C-283.93889317 218.51003706 -283.73995503 215.97209702 -283.57421875 213.4140625 C-283.45965872 211.83458636 -283.34440047 210.25516074 -283.22851562 208.67578125 C-283.0505668 206.19715611 -282.87701594 203.71855965 -282.71606445 201.23876953 C-281.6465224 184.9876267 -278.75690906 169.40397916 -266.3046875 157.7265625 C-256.77916755 150.23971471 -247.79739724 146.77420029 -235.85571289 146.74365234 C-234.94760864 146.73360672 -234.03950439 146.7235611 -233.10388184 146.71321106 C-230.12264601 146.68248836 -227.14149954 146.66537432 -224.16015625 146.6484375 C-222.08507016 146.62971708 -220.00999161 146.61014301 -217.93492126 146.5897522 C-212.48851984 146.53851746 -207.04209377 146.49884539 -201.59558105 146.46160889 C-196.03175805 146.42151493 -190.46803686 146.3704472 -184.90429688 146.3203125 C-173.99876952 146.22365572 -163.09318457 146.13921818 -152.1875 146.0625 C-151.16586686 142.99760058 -150.89474104 140.47237347 -150.65234375 137.2578125 C-150.52182617 135.54658203 -150.52182617 135.54658203 -150.38867188 133.80078125 C-150.2581543 132.01220703 -150.2581543 132.01220703 -150.125 130.1875 C-149.98868164 128.41052734 -149.98868164 128.41052734 -149.84960938 126.59765625 C-149.48551395 121.74122555 -149.12972103 116.93500643 -149.1875 112.0625 C-148.5275 112.0625 -147.8675 112.0625 -147.1875 112.0625 C-146.80271484 110.56976563 -146.80271484 110.56976563 -146.41015625 109.046875 C-141.96403024 92.54155803 -135.48675677 76.80192089 -125.1875 63.0625 C-124.32705078 61.88880859 -124.32705078 61.88880859 -123.44921875 60.69140625 C-119.0392944 54.84192038 -114.17868215 49.41848617 -109.1875 44.0625 C-108.47335937 43.27101562 -107.75921875 42.47953125 -107.0234375 41.6640625 C-99.90787637 34.10836357 -91.62996992 28.34111177 -83.13525391 22.43774414 C-82.49249512 21.98391357 -81.84973633 21.53008301 -81.1875 21.0625 C-80.4454834 20.55130615 -79.7034668 20.0401123 -78.93896484 19.51342773 C-78.36098145 19.03462158 -77.78299805 18.55581543 -77.1875 18.0625 C-77.1875 17.4025 -77.1875 16.7425 -77.1875 16.0625 C-76.259375 16.000625 -75.33125 15.93875 -74.375 15.875 C-71.04025602 15.398608 -68.40440302 14.33360145 -65.375 12.875 C-44.55123923 3.03363361 -22.8788458 -0.16033692 0 0 Z M-45.1875 38.0625 C-46.15300781 38.40925781 -47.11851562 38.75601563 -48.11328125 39.11328125 C-60.09934309 43.73307462 -70.98134801 50.29228201 -80.234375 59.21484375 C-82.1875 61.0625 -82.1875 61.0625 -85.1875 63.0625 C-85.1875 63.7225 -85.1875 64.3825 -85.1875 65.0625 C-86.1775 65.3925 -87.1675 65.7225 -88.1875 66.0625 C-90.00051537 68.06573338 -91.66561336 70.05423456 -93.3125 72.1875 C-93.79678467 72.81277588 -94.28106934 73.43805176 -94.7800293 74.08227539 C-111.1012151 95.56653095 -118.81825287 119.187669 -120.1875 146.0625 C-118.31487945 147.93512055 -115.61386664 147.18803904 -113.12178373 147.19624341 C-112.24213343 147.19401268 -111.36248313 147.19178196 -110.45617676 147.18948364 C-109.52906151 147.19104363 -108.60194627 147.19260362 -107.64673662 147.19421089 C-104.51512633 147.19822513 -101.38356384 147.19502961 -98.25195312 147.19189453 C-96.01700309 147.19324838 -93.78205327 147.19502823 -91.54710388 147.19720459 C-85.45844162 147.20178083 -79.36979622 147.19998858 -73.28113365 147.1968255 C-66.92476733 147.19430288 -60.56840251 147.19663917 -54.21203613 147.19821167 C-42.8505063 147.20015053 -31.48898507 147.19703272 -20.12745696 147.19195233 C-9.81592452 147.18748429 0.49559667 147.18826022 10.80712891 147.19287109 C22.76762135 147.19821677 34.72810696 147.20021774 46.68860102 147.19725883 C53.02502367 147.1956956 59.36143856 147.19550353 65.69786072 147.19879532 C71.65343438 147.20167285 77.60898668 147.19970052 83.56455803 147.19390106 C85.75721641 147.19257283 87.94987657 147.19296864 90.14253426 147.19516373 C93.12210647 147.19787276 96.10160905 147.19449715 99.08117676 147.18948364 C99.96082706 147.19171436 100.84047736 147.19394509 101.74678373 147.19624341 C105.58937305 147.56157979 105.58937305 147.56157979 108.8125 146.0625 C108.9116757 143.91855481 108.9422015 141.77123268 108.9375 139.625 C108.94007813 138.45066406 108.94265625 137.27632813 108.9453125 136.06640625 C109.02015546 133.1384191 109.02015546 133.1384191 107.8125 131.0625 C107.73220032 129.73012018 107.67363218 128.39641114 107.625 127.0625 C107.14527595 121.75458551 105.67761769 116.9657088 104 111.9375 C103.75161377 111.18597656 103.50322754 110.43445313 103.24731445 109.66015625 C101.0800994 103.35653424 98.89251345 97.14251345 94.125 92.375 C91.51975434 89.76975434 91.35545758 88.59172427 90.8125 85.0625 C89.49788601 83.05915314 89.49788601 83.05915314 87.8125 81.0625 C87.008125 79.763125 87.008125 79.763125 86.1875 78.4375 C77.30535877 65.18057279 63.6767131 53.80151842 49.8125 46.0625 C48.94334961 45.57571777 48.94334961 45.57571777 48.05664062 45.07910156 C32.69042572 36.59981717 17.27904688 32.34314295 -0.1875 31.0625 C-1.10273437 30.9903125 -2.01796875 30.918125 -2.9609375 30.84375 C-16.94263916 30.31447423 -32.15095573 33.18918993 -45.1875 38.0625 Z " fill="#2779C6" transform="translate(517.1875,151.9375)"/>
<path d="M0 0 C1.8572168 0.00676758 1.8572168 0.00676758 3.75195312 0.01367188 C6.77218785 0.02533301 9.79231677 0.04169764 12.8125 0.0625 C12.8125 0.7225 12.8125 1.3825 12.8125 2.0625 C13.45832031 2.07667969 14.10414063 2.09085938 14.76953125 2.10546875 C21.75060474 2.45881994 28.25915691 3.7439714 35 5.5 C35.84989502 5.71744873 36.69979004 5.93489746 37.57543945 6.15893555 C38.36909912 6.37332275 39.16275879 6.58770996 39.98046875 6.80859375 C41.05204224 7.09754517 41.05204224 7.09754517 42.14526367 7.39233398 C43.8125 8.0625 43.8125 8.0625 44.8125 10.0625 C46.47405063 10.42046423 48.14212188 10.74829333 49.8125 11.0625 C51.89193339 11.8526313 53.95445321 12.68837814 56 13.5625 C57.04542969 14.0059375 58.09085938 14.449375 59.16796875 14.90625 C61.89038895 16.09655485 63.79967252 17.05212931 66.1171875 18.92578125 C68.64342096 20.92846198 71.18198548 22.58435316 73.9375 24.25 C79.98451515 28.05376759 85.39589043 32.41739565 90.8125 37.0625 C91.61945313 37.74570313 92.42640625 38.42890625 93.2578125 39.1328125 C119.45982184 61.78200701 135.8372514 95.87115226 139.8125 130.0625 C139.99813255 135.09009185 139.97097075 140.10134202 139.90350342 145.13106346 C139.86423254 148.45409125 139.86274221 151.77683736 139.85870361 155.10006428 C139.85102233 161.25792424 139.82906551 167.41473657 139.74072266 173.57202148 C139.68029386 177.88532149 139.66896921 182.19639085 139.68942261 186.51003456 C139.68815325 188.14107911 139.6690767 189.77221884 139.63113403 191.40282249 C139.25475144 200.72595378 139.25475144 200.72595378 143.02416992 208.9659729 C145.64442005 211.3737203 145.64442005 211.3737203 148.41430664 213.26704407 C152.77842011 216.53432583 154.12324516 220.99473548 155.8125 226.0625 C156.54190445 236.19000027 155.75028611 245.21688379 149.3828125 253.43359375 C142.8835551 260.17536075 134.2445278 264.04420559 124.9375 264.5 C115.77449629 264.14484482 108.34063305 260.65125099 101.7578125 254.3515625 C95.51019574 246.9999492 93.29856668 238.83003216 93.4140625 229.359375 C94.1143143 223.56513465 96.37635344 218.74202937 99.8125 214.0625 C100.87644485 213.32457718 100.87644485 213.32457718 101.96188354 212.57174683 C105.96641439 209.74055776 108.44184953 207.59184794 109.62214661 202.72180176 C109.88709024 198.58576951 109.87990698 194.53728744 109.76171875 190.3984375 C109.74998559 188.87727196 109.74197686 187.35607359 109.73750305 185.83486938 C109.71925452 182.65842761 109.67221628 179.48429131 109.60131836 176.30859375 C109.51072412 172.24897324 109.46766774 168.19074639 109.44307232 164.13023949 C109.41825038 160.24028346 109.37324294 156.35065428 109.32421875 152.4609375 C109.31591223 151.72501751 109.30760571 150.98909752 109.29904747 150.23087692 C109.27101291 148.1371092 109.22908142 146.04410869 109.18237305 143.95068359 C109.15966843 142.76235931 109.13696381 141.57403503 109.11357117 140.34970093 C108.80439924 136.97405301 107.97353636 134.23415781 106.8125 131.0625 C106.609375 128.921875 106.609375 128.921875 106.5625 126.8125 C106.12867745 121.54235938 104.60850313 116.79728979 102.9375 111.8125 C102.6806543 111.04389648 102.42380859 110.27529297 102.15917969 109.48339844 C99.53597248 101.61939348 99.53597248 101.61939348 94.75 95 C92.53219832 92.78219832 91.81910928 91.01042717 90.8125 88.0625 C90.44125 87.134375 90.07 86.20625 89.6875 85.25 C89.254375 84.1671875 89.254375 84.1671875 88.8125 83.0625 C88.1525 83.0625 87.4925 83.0625 86.8125 83.0625 C86.71582031 82.49660156 86.61914062 81.93070312 86.51953125 81.34765625 C81.79890393 66.0903801 59.39811409 51.93275225 45.89208984 44.7746582 C31.3127725 37.3685344 16.15697429 33.03898353 -0.1875 32.0625 C-0.98027344 32.00835937 -1.77304687 31.95421875 -2.58984375 31.8984375 C-9.05638711 31.67369192 -15.35811455 32.49590604 -21.75 33.375 C-22.62446777 33.49262695 -23.49893555 33.61025391 -24.39990234 33.73144531 C-29.80976295 34.5247157 -34.87949047 35.75467994 -40.07397461 37.46557617 C-42.1875 38.0625 -42.1875 38.0625 -45.1875 38.0625 C-45.6825 39.0525 -45.6825 39.0525 -46.1875 40.0625 C-47.404375 40.43375 -48.62125 40.805 -49.875 41.1875 C-60.93827601 44.69321963 -70.44836531 51.62094703 -79.1875 59.0625 C-80.03699219 59.72765625 -80.88648438 60.3928125 -81.76171875 61.078125 C-103.57900494 78.92543802 -113.66535707 106.27447391 -118.1875 133.0625 C-118.35404083 134.00016205 -118.52058167 134.9378241 -118.69216919 135.90390015 C-120.06070105 144.04712717 -120.56468872 151.99620686 -120.6640625 160.24609375 C-120.68020599 161.54523209 -120.69634949 162.84437042 -120.71298218 164.18287659 C-120.74268831 166.90470801 -120.76254147 169.62644155 -120.77783203 172.34838867 C-120.80016979 175.82477945 -120.86933557 179.29868252 -120.94817543 182.77418423 C-121.01305315 186.11888563 -121.02204095 189.46331223 -121.0390625 192.80859375 C-121.07407867 194.04927109 -121.10909485 195.28994843 -121.14517212 196.56822205 C-121.27357264 202.82673848 -121.27357264 202.82673848 -118.42118835 208.12107849 C-116.31995645 209.74837637 -116.31995645 209.74837637 -114.1085968 210.95541382 C-111.39720077 212.51793221 -110.23137786 214.5432331 -108.75 217.25 C-108.04037109 218.50876953 -108.04037109 218.50876953 -107.31640625 219.79296875 C-103.89344121 226.67443135 -104.13570478 235.67239822 -105.90625 243.0625 C-109.47307694 252.49733256 -115.34736516 257.57271543 -124.1875 262.0625 C-131.51946393 264.9429144 -138.89453537 265.15497044 -146.3125 262.5 C-154.45900383 258.88787095 -160.80041047 252.58091946 -164.9375 244.75 C-167.4318091 237.51512554 -167.84571843 226.63690928 -164.6875 219.5625 C-161.33395758 214.15356062 -156.44940856 209.57043904 -151.1875 206.0625 C-150.71422814 202.8803572 -150.71422814 202.8803572 -150.77099609 199.06518555 C-150.75811806 197.98416313 -150.75811806 197.98416313 -150.74497986 196.88130188 C-150.71979777 194.48717621 -150.71552579 192.09346513 -150.7109375 189.69921875 C-150.69662147 188.02926883 -150.68086336 186.35933071 -150.66372681 184.68940735 C-150.62175615 180.27703223 -150.59685915 175.86472992 -150.57623291 171.45220947 C-150.54054177 164.42930434 -150.47875439 157.40658156 -150.41774368 150.38385963 C-150.39889885 147.94639211 -150.38698512 145.50897223 -150.37631226 143.07145691 C-150.32995554 135.26537302 -150.11499339 127.54890006 -149.39883423 119.76789856 C-149.19715617 117.1861136 -149.15076599 114.65081099 -149.1875 112.0625 C-148.5275 112.0625 -147.8675 112.0625 -147.1875 112.0625 C-146.93097656 111.06734375 -146.67445313 110.0721875 -146.41015625 109.046875 C-141.96403024 92.54155803 -135.48675677 76.80192089 -125.1875 63.0625 C-124.61386719 62.28003906 -124.04023438 61.49757812 -123.44921875 60.69140625 C-119.0392944 54.84192038 -114.17868215 49.41848617 -109.1875 44.0625 C-108.47335937 43.27101562 -107.75921875 42.47953125 -107.0234375 41.6640625 C-99.90787637 34.10836357 -91.62996992 28.34111177 -83.13525391 22.43774414 C-82.49249512 21.98391357 -81.84973633 21.53008301 -81.1875 21.0625 C-80.4454834 20.55130615 -79.7034668 20.0401123 -78.93896484 19.51342773 C-78.36098145 19.03462158 -77.78299805 18.55581543 -77.1875 18.0625 C-77.1875 17.4025 -77.1875 16.7425 -77.1875 16.0625 C-76.259375 16.000625 -75.33125 15.93875 -74.375 15.875 C-71.04025602 15.398608 -68.40440302 14.33360145 -65.375 12.875 C-44.55123923 3.03363361 -22.8788458 -0.16033692 0 0 Z " fill="#1D2934" transform="translate(517.1875,151.9375)"/>
<path d="M0 0 C0.85431279 -0.00145344 1.70862557 -0.00290688 2.58882663 -0.00440437 C5.46496257 -0.00806739 8.34104561 -0.0045765 11.21718121 -0.0011425 C13.2946946 -0.0022942 15.3722078 -0.00388206 17.44972056 -0.00586975 C23.1693776 -0.01005642 28.88901802 -0.00797532 34.60867512 -0.00488353 C40.77307984 -0.00262693 46.93748165 -0.00611037 53.1018858 -0.00886345 C64.48430627 -0.01305995 75.86671995 -0.0126866 87.24914026 -0.00995198 C97.76561476 -0.00743778 108.28208731 -0.00677909 118.79856205 -0.00797462 C119.49577613 -0.00805101 120.19299021 -0.00812739 120.91133199 -0.00820609 C123.74148695 -0.00851743 126.5716419 -0.00883583 129.40179685 -0.00916586 C155.96163399 -0.01222616 182.52146774 -0.00944952 209.08130436 -0.00406896 C232.67922602 0.00067522 256.27714228 0.00025348 279.8750639 -0.00452995 C306.3813724 -0.00988495 332.88767791 -0.01200757 359.39398688 -0.00891769 C362.21995652 -0.00859697 365.04592615 -0.00828413 367.87189579 -0.00797462 C368.56773175 -0.00789555 369.2635677 -0.00781647 369.9804896 -0.007735 C380.48839165 -0.00659752 390.99629155 -0.00792784 401.50419331 -0.01045418 C413.45449185 -0.01331296 425.40478402 -0.0125034 437.35508231 -0.00717343 C443.45418935 -0.00454296 449.55328543 -0.00352032 455.65239239 -0.00682259 C461.23411147 -0.00979903 466.81580942 -0.00817013 472.39752658 -0.00284503 C474.41836726 -0.00172661 476.43920972 -0.00229934 478.46004925 -0.00472082 C481.20485219 -0.00775786 483.94958257 -0.00464601 486.69438171 0 C487.48052647 -0.00234117 488.26667123 -0.00468233 489.07663855 -0.00709444 C493.97815001 0.00950733 498.68231054 0.43295795 503.53595257 1.12584114 C495.80130549 7.52692838 477.54370195 4.12584114 467.53595257 4.12584114 C467.86595257 4.78584114 468.19595257 5.44584114 468.53595257 6.12584114 C462.66095257 5.25084114 462.66095257 5.25084114 461.53595257 4.12584114 C461.20595257 4.78584114 460.87595257 5.44584114 460.53595257 6.12584114 C457.97345257 6.75084114 457.97345257 6.75084114 455.53595257 7.12584114 C455.20595257 6.13584114 454.87595257 5.14584114 454.53595257 4.12584114 C413.94595257 4.12584114 373.35595257 4.12584114 331.53595257 4.12584114 C331.53595257 4.45584114 331.53595257 4.78584114 331.53595257 5.12584114 C329.88595257 5.12584114 328.23595257 5.12584114 326.53595257 5.12584114 C326.53595257 4.79584114 326.53595257 4.46584114 326.53595257 4.12584114 C325.58679974 4.13369637 325.58679974 4.13369637 324.6184721 4.14171028 C311.21553528 4.23746286 297.90772211 4.0713198 284.53595257 3.12584114 C284.53595257 4.11584114 284.53595257 5.10584114 284.53595257 6.12584114 C282.55595257 5.79584114 280.57595257 5.46584114 278.53595257 5.12584114 C278.53595257 4.79584114 278.53595257 4.46584114 278.53595257 4.12584114 C243.55595257 4.12584114 208.57595257 4.12584114 172.53595257 4.12584114 C172.53595257 4.78584114 172.53595257 5.44584114 172.53595257 6.12584114 C170.55595257 5.79584114 168.57595257 5.46584114 166.53595257 5.12584114 C166.53595257 4.79584114 166.53595257 4.46584114 166.53595257 4.12584114 C153.00595257 4.12584114 139.47595257 4.12584114 125.53595257 4.12584114 C125.20595257 4.78584114 124.87595257 5.44584114 124.53595257 6.12584114 C122.55595257 6.12584114 120.57595257 6.12584114 118.53595257 6.12584114 C118.53595257 5.46584114 118.53595257 4.80584114 118.53595257 4.12584114 C96.75595257 4.12584114 74.97595257 4.12584114 52.53595257 4.12584114 C52.53595257 4.78584114 52.53595257 5.44584114 52.53595257 6.12584114 C50.88595257 6.45584114 49.23595257 6.78584114 47.53595257 7.12584114 C47.04095257 5.64084114 47.04095257 5.64084114 46.53595257 4.12584114 C45.84326275 4.11775429 45.15057293 4.10966743 44.43689251 4.10133553 C37.23437258 4.01535049 30.03212979 3.91584922 22.82989788 3.80845833 C20.14113366 3.76906103 17.45237106 3.73447326 14.76349163 3.70396614 C10.90099926 3.65835737 7.0388626 3.60035499 3.17657757 3.53990364 C1.97229107 3.52835243 0.76800457 3.51680122 -0.47277546 3.50489998 C-1.59363544 3.48503029 -2.71449543 3.4651606 -3.86932087 3.4446888 C-4.85527241 3.43136513 -5.84122395 3.41804146 -6.8570528 3.40431404 C-9.5162749 3.12026233 -11.18163359 2.48128551 -13.46404743 1.12584114 C-8.98055912 0.0063665 -4.5901029 -0.01354844 0 0 Z " fill="#1F6BB8" transform="translate(264.4640474319458,856.8741588592529)"/>
<path d="M0 0 C167.97 0 335.94 0 509 0 C509 0.99 509 1.98 509 3 C508.01 2.67 507.02 2.34 506 2 C503.78910055 1.91641042 501.57573922 1.89268236 499.36328125 1.90234375 C497.41518555 1.90717773 497.41518555 1.90717773 495.42773438 1.91210938 C494.05598892 1.92046469 492.68424413 1.92892963 491.3125 1.9375 C489.92903805 1.94251665 488.54557437 1.94707927 487.16210938 1.95117188 C483.77469605 1.96297471 480.38736967 1.97943981 477 2 C477.33 2.66 477.66 3.32 478 4 C472.125 3.125 472.125 3.125 471 2 C470.67 2.66 470.34 3.32 470 4 C467.4375 4.625 467.4375 4.625 465 5 C464.67 4.01 464.34 3.02 464 2 C423.41 2 382.82 2 341 2 C341 2.33 341 2.66 341 3 C339.35 3 337.7 3 336 3 C336 2.67 336 2.34 336 2 C335.05084717 2.00785522 335.05084717 2.00785522 334.08251953 2.01586914 C320.67958271 2.11162172 307.37176954 1.94547865 294 1 C294 1.99 294 2.98 294 4 C292.02 3.67 290.04 3.34 288 3 C288 2.67 288 2.34 288 2 C253.02 2 218.04 2 182 2 C182 2.66 182 3.32 182 4 C180.02 3.67 178.04 3.34 176 3 C176 2.67 176 2.34 176 2 C162.47 2 148.94 2 135 2 C134.67 2.66 134.34 3.32 134 4 C132.02 4 130.04 4 128 4 C128 3.34 128 2.68 128 2 C106.22 2 84.44 2 62 2 C62 2.66 62 3.32 62 4 C60.35 4.33 58.7 4.66 57 5 C56.505 3.515 56.505 3.515 56 2 C37.52 1.67 19.04 1.34 0 1 C0 0.67 0 0.34 0 0 Z " fill="#3B81C6" transform="translate(255,859)"/>
<path d="M0 0 C0.33 0 0.66 0 1 0 C1 1.65 1 3.3 1 5 C-0.69342781 5.0154612 -0.69342781 5.0154612 -2.42106628 5.03123474 C-13.05933505 5.12898257 -23.69754551 5.23171803 -34.33571911 5.33933926 C-39.80492853 5.39450821 -45.27414335 5.44791859 -50.7434082 5.49731445 C-56.02133611 5.54504688 -61.29919993 5.59739291 -66.57705116 5.65294075 C-68.59085812 5.67332408 -70.60468263 5.69204373 -72.61852074 5.70907402 C-75.43869746 5.73320711 -78.25875387 5.76324947 -81.07885742 5.79467773 C-82.32826866 5.80331093 -82.32826866 5.80331093 -83.60292053 5.81211853 C-94.13849725 5.94561064 -104.76286992 9.1853462 -113 16 C-115.93242617 19.15799741 -118.50301326 22.49087164 -121 26 C-121.42410156 26.57621094 -121.84820312 27.15242188 -122.28515625 27.74609375 C-128.0669244 36.56164138 -128.49474415 48.65230798 -129.16796875 58.86328125 C-129.25250809 60.02127731 -129.33704742 61.17927338 -129.42414856 62.37236023 C-129.68815672 66.01846535 -129.93808032 69.66537096 -130.1875 73.3125 C-130.36559981 75.80670768 -130.54462812 78.30084925 -130.72460938 80.79492188 C-131.16045918 86.86255958 -131.58479579 92.93091641 -132 99 C-132.33 99 -132.66 99 -133 99 C-133.19645093 95.87549468 -133.38063489 92.75038555 -133.5625 89.625 C-133.61857422 88.73554688 -133.67464844 87.84609375 -133.73242188 86.9296875 C-133.78076172 86.07890625 -133.82910156 85.228125 -133.87890625 84.3515625 C-133.9260376 83.56604004 -133.97316895 82.78051758 -134.02172852 81.97119141 C-134 80 -134 80 -133 78 C-132.75139317 75.44753706 -132.55245503 72.90959702 -132.38671875 70.3515625 C-132.27215872 68.77208636 -132.15690047 67.19266074 -132.04101562 65.61328125 C-131.8630668 63.13465611 -131.68951594 60.65605965 -131.52856445 58.17626953 C-130.4590224 41.9251267 -127.56940906 26.34147916 -115.1171875 14.6640625 C-105.59166755 7.17721471 -96.60989724 3.71170029 -84.66821289 3.68115234 C-83.30605652 3.66608391 -83.30605652 3.66608391 -81.91638184 3.65071106 C-78.93514601 3.61998836 -75.95399954 3.60287432 -72.97265625 3.5859375 C-70.89757016 3.56721708 -68.82249161 3.54764301 -66.74742126 3.5272522 C-61.30101984 3.47601746 -55.85459377 3.43634539 -50.40808105 3.39910889 C-44.84425805 3.35901493 -39.28053686 3.3079472 -33.71679688 3.2578125 C-22.81126952 3.16115572 -11.90568457 3.07671818 -1 3 C-0.67 2.01 -0.34 1.02 0 0 Z " fill="#226AB1" transform="translate(366,295)"/>
<path d="M0 0 C2.31 0.33 4.62 0.66 7 1 C6.67 1.66 6.34 2.32 6 3 C34.05 3.33 62.1 3.66 91 4 C91 4.33 91 4.66 91 5 C61.3 5 31.6 5 1 5 C0.67 3.35 0.34 1.7 0 0 Z " fill="#1059A3" transform="translate(657,295)"/>
<path d="M0 0 C0.33 0 0.66 0 1 0 C4.75374377 17.27451014 4.18276869 35.41359074 4 53 C3.67 53 3.34 53 3 53 C1.96105364 46.20688917 1.49292904 39.4206947 1.07006836 32.5690918 C0.9393292 30.46691201 0.80100263 28.36532659 0.66210938 26.26367188 C0.10200851 17.49339684 -0.1166219 8.79156384 0 0 Z " fill="#2873BC" transform="translate(797,490)"/>
<path d="M0 0 C4.53059961 0.49175547 6.6127352 2.07636248 9.875 5.1875 C12.79294876 7.93201941 15.69605275 10.60865638 18.8125 13.125 C22.23077556 16.00866374 24.54235501 19.27629548 27 23 C24 23 24 23 22.52734375 21.56640625 C22.00269531 20.90511719 21.47804688 20.24382812 20.9375 19.5625 C14.84631152 12.29943382 7.75614144 6.39557665 0 1 C0 0.67 0 0.34 0 0 Z " fill="#1B232E" transform="translate(595,181)"/>
<path d="M0 0 C0.99 0.33 1.98 0.66 3 1 C2.319375 1.495 1.63875 1.99 0.9375 2.5 C-2.79701049 5.6783068 -5.83898231 9.26362164 -9 13 C-10.1453592 14.33374065 -11.29115647 15.66710528 -12.4375 17 C-13.283125 17.99 -14.12875 18.98 -15 20 C-15.33 19.01 -15.66 18.02 -16 17 C-14.0843735 14.91570199 -12.16753939 12.83253697 -10.25 10.75 C-9.71117187 10.16347656 -9.17234375 9.57695312 -8.6171875 8.97265625 C-5.80318147 5.91843019 -2.96618844 2.90859255 0 0 Z " fill="#161E26" transform="translate(413,191)"/>
<path d="M0 0 C2.31 0.33 4.62 0.66 7 1 C6.67 1.66 6.34 2.32 6 3 C19.365 3.495 19.365 3.495 33 4 C33 4.33 33 4.66 33 5 C22.44 5 11.88 5 1 5 C0.67 3.35 0.34 1.7 0 0 Z " fill="#2161A1" transform="translate(657,295)"/>
<path d="M0 0 C4.53847198 1.34927545 8.31932246 3.19159348 12.375 5.625 C13.43460938 6.25664062 14.49421875 6.88828125 15.5859375 7.5390625 C16.38257813 8.02117187 17.17921875 8.50328125 18 9 C15 10 15 10 11.6796875 8.41796875 C10.40533832 7.68501844 9.13728125 6.94104365 7.875 6.1875 C7.22917969 5.81818359 6.58335937 5.44886719 5.91796875 5.06835938 C1.13908679 2.27817358 1.13908679 2.27817358 0 0 Z " fill="#18202A" transform="translate(556,191)"/>
<path d="M0 0 C3.66328048 7.02873328 3.11292225 14.24600572 3 22 C2.67 22 2.34 22 2 22 C1.86722656 21.22914063 1.73445312 20.45828125 1.59765625 19.6640625 C1.42105469 18.66117187 1.24445312 17.65828125 1.0625 16.625 C0.88847656 15.62726563 0.71445312 14.62953125 0.53515625 13.6015625 C0.12287938 11.03090344 0.12287938 11.03090344 -1 9 C-0.91348369 7.45386986 -0.75997364 5.91090613 -0.5625 4.375 C-0.46066406 3.55773437 -0.35882812 2.74046875 -0.25390625 1.8984375 C-0.17011719 1.27195312 -0.08632813 0.64546875 0 0 Z " fill="#151B22" transform="translate(625,274)"/>
<path d="M0 0 C2 0 2 0 4.25 2 C7.51970254 5.38682622 10.24880232 9.18992211 13 13 C9.36938333 11.46781315 7.0136227 9.2816856 4.25 6.5 C3.45078125 5.7059375 2.6515625 4.911875 1.828125 4.09375 C0 2 0 2 0 0 Z " fill="#171E27" transform="translate(588,212)"/>
<path d="M0 0 C-1.1858597 3.55757911 -2.38255583 4.37119679 -5.3125 6.625 C-6.09238281 7.23601562 -6.87226563 7.84703125 -7.67578125 8.4765625 C-9.86681095 9.91269962 -11.4428742 10.56698556 -14 11 C-11.08723043 6.87357644 -5.51692628 0 0 0 Z " fill="#19222B" transform="translate(448,201)"/>
<path d="M0 0 C0.66 0 1.32 0 2 0 C1.67 2.97 1.34 5.94 1 9 C0.34 9 -0.32 9 -1 9 C-1.33 10.32 -1.66 11.64 -2 13 C-2.33 10.03 -2.66 7.06 -3 4 C-2.34 4 -1.68 4 -1 4 C-0.67 2.68 -0.34 1.36 0 0 Z " fill="#223141" transform="translate(371,260)"/>
<path d="M0 0 C0.66 0 1.32 0 2 0 C0.41037341 4.03520597 -1.28232318 8.01811282 -3 12 C-3.66 12 -4.32 12 -5 12 C-4.52583422 7.02125936 -3.0900669 3.93281242 0 0 Z " fill="#19212B" transform="translate(388,221)"/>
<path d="M0 0 C0.66 0.33 1.32 0.66 2 1 C0.59447701 2.03612271 -0.82491694 3.05344925 -2.25 4.0625 C-3.43335938 4.91521484 -3.43335938 4.91521484 -4.640625 5.78515625 C-7 7 -7 7 -9.296875 6.68359375 C-9.85890625 6.45800781 -10.4209375 6.23242188 -11 6 C-9.21385682 4.96953278 -7.42089982 3.95086764 -5.625 2.9375 C-4.62726563 2.36902344 -3.62953125 1.80054688 -2.6015625 1.21484375 C-1.74304688 0.81394531 -0.88453125 0.41304687 0 0 Z " fill="#171E27" transform="translate(462,192)"/>
<path d="M0 0 C3.63 0.33 7.26 0.66 11 1 C11 1.99 11 2.98 11 4 C7.37 3.34 3.74 2.68 0 2 C0 1.34 0 0.68 0 0 Z " fill="#19222D" transform="translate(551,159)"/>
<path d="M0 0 C3.9492568 0.55105909 7.34920174 1.38935371 11 3 C11 3.66 11 4.32 11 5 C7.37 4.01 3.74 3.02 0 2 C0 1.34 0 0.68 0 0 Z " fill="#19222C" transform="translate(542,186)"/>
<path d="M0 0 C0.99 0.33 1.98 0.66 3 1 C0.36 2.98 -2.28 4.96 -5 7 C-5.66 6.67 -6.32 6.34 -7 6 C-2.25 1.125 -2.25 1.125 0 0 Z " fill="#181F27" transform="translate(431,177)"/>
<path d="M0 0 C1.21236328 0.01353516 1.21236328 0.01353516 2.44921875 0.02734375 C3.37154297 0.04474609 3.37154297 0.04474609 4.3125 0.0625 C1.27724514 2.08600324 0.11823798 2.38374018 -3.375 2.6875 C-4.18324219 2.76226562 -4.99148438 2.83703125 -5.82421875 2.9140625 C-6.43910156 2.96304688 -7.05398438 3.01203125 -7.6875 3.0625 C-7.6875 2.4025 -7.6875 1.7425 -7.6875 1.0625 C-4.80538698 0.10179566 -2.98899956 -0.04331883 0 0 Z " fill="#171D24" transform="translate(480.6875,155.9375)"/>
<path d="M0 0 C1.14926266 0.95421808 2.29430541 1.91352045 3.4375 2.875 C4.07558594 3.40867187 4.71367187 3.94234375 5.37109375 4.4921875 C7 6 7 6 8 8 C4.82461668 7.65978036 3.97723135 6.97533396 1.75 4.5625 C0 2 0 2 0 0 Z " fill="#2A83D0" transform="translate(355,402)"/>
<path d="M0 0 C0.66 0 1.32 0 2 0 C2.125 5.75 2.125 5.75 1 8 C0.34 8 -0.32 8 -1 8 C-1.125 2.25 -1.125 2.25 0 0 Z " fill="#19222D" transform="translate(376,245)"/>
<path d="M0 0 C0.99 0 1.98 0 3 0 C4.38671875 1.53125 4.38671875 1.53125 5.6875 3.5 C6.12449219 4.1496875 6.56148437 4.799375 7.01171875 5.46875 C7.33785156 5.9740625 7.66398438 6.479375 8 7 C7.01 7 6.02 7 5 7 C3.61328125 5.46875 3.61328125 5.46875 2.3125 3.5 C1.87550781 2.8503125 1.43851563 2.200625 0.98828125 1.53125 C0.49908203 0.77328125 0.49908203 0.77328125 0 0 Z " fill="#161D26" transform="translate(614,197)"/>
<path d="M0 0 C2.31 0 4.62 0 7 0 C7 0.66 7 1.32 7 2 C4.69 1.67 2.38 1.34 0 1 C0 0.67 0 0.34 0 0 Z " fill="#3379BF" transform="translate(471,861)"/>
<path d="M0 0 C1.98 0 3.96 0 6 0 C5.67 0.66 5.34 1.32 5 2 C2.4375 2.625 2.4375 2.625 0 3 C0 2.01 0 1.02 0 0 Z " fill="#3378BD" transform="translate(368,861)"/>
<path d="M0 0 C2.31 0 4.62 0 7 0 C6.67 0.66 6.34 1.32 6 2 C3.4375 2.625 3.4375 2.625 1 3 C0.67 2.01 0.34 1.02 0 0 Z " fill="#3379BE" transform="translate(359,861)"/>
<path d="M0 0 C1.65 0 3.3 0 5 0 C5.33 0.66 5.66 1.32 6 2 C4.35 2.33 2.7 2.66 1 3 C0.67 2.01 0.34 1.02 0 0 Z " fill="#3378BC" transform="translate(743,861)"/>
<path d="M0 0 C2.31 0 4.62 0 7 0 C6.34 0.66 5.68 1.32 5 2 C2.375 1.625 2.375 1.625 0 1 C0 0.67 0 0.34 0 0 Z " fill="#3479BE" transform="translate(695,861)"/>
<path d="M0 0 C2.31 0 4.62 0 7 0 C6.67 0.66 6.34 1.32 6 2 C3.03 1.505 3.03 1.505 0 1 C0 0.67 0 0.34 0 0 Z " fill="#3379BF" transform="translate(407,861)"/>
<path d="M0 0 C2.31 0 4.62 0 7 0 C4 1.5 4 1.5 1 3 C0.67 2.01 0.34 1.02 0 0 Z " fill="#3479BD" transform="translate(335,861)"/>
<path d="M0 0 C1.65 0 3.3 0 5 0 C5.33 0.66 5.66 1.32 6 2 C4.35 2.33 2.7 2.66 1 3 C0.67 2.01 0.34 1.02 0 0 Z " fill="#3379BD" transform="translate(679,861)"/>
<path d="M0 0 C2.31 0 4.62 0 7 0 C5.1875 1.0625 5.1875 1.0625 3 2 C2.01 1.67 1.02 1.34 0 1 C0 0.67 0 0.34 0 0 Z " fill="#3378BD" transform="translate(535,861)"/>
<path d="M0 0 C2.31 0 4.62 0 7 0 C6.67 0.66 6.34 1.32 6 2 C3.03 1.505 3.03 1.505 0 1 C0 0.67 0 0.34 0 0 Z " fill="#337ABF" transform="translate(479,861)"/>
<path d="M0 0 C2.31 0 4.62 0 7 0 C6.67 0.66 6.34 1.32 6 2 C3.03 1.505 3.03 1.505 0 1 C0 0.67 0 0.34 0 0 Z " fill="#3379BE" transform="translate(415,861)"/>
<path d="M0 0 C2.31 0 4.62 0 7 0 C6.67 0.66 6.34 1.32 6 2 C3.03 1.505 3.03 1.505 0 1 C0 0.67 0 0.34 0 0 Z " fill="#3379BF" transform="translate(319,861)"/>
<path d="M0 0 C1.65 0 3.3 0 5 0 C5.33 0.66 5.66 1.32 6 2 C4.68 1.67 3.36 1.34 2 1 C1.67 1.66 1.34 2.32 1 3 C0.67 2.01 0.34 1.02 0 0 Z " fill="#3379BE" transform="translate(671,861)"/>
<path d="M0 0 C1.65 0 3.3 0 5 0 C4.67 0.66 4.34 1.32 4 2 C3.01 2.33 2.02 2.66 1 3 C0.67 2.01 0.34 1.02 0 0 Z " fill="#3379BE" transform="translate(623,861)"/>
<path d="M0 0 C1.65 0 3.3 0 5 0 C4.67 0.66 4.34 1.32 4 2 C3.01 2.33 2.02 2.66 1 3 C0.67 2.01 0.34 1.02 0 0 Z " fill="#3378BD" transform="translate(399,861)"/>
<path d="M0 0 C2.475 0.495 2.475 0.495 5 1 C3.02 1.99 3.02 1.99 1 3 C0.67 2.01 0.34 1.02 0 0 Z " fill="#3378BD" transform="translate(304,861)"/>
<path d="M0 0 C2.31 0 4.62 0 7 0 C6.01 0.66 5.02 1.32 4 2 C2.68 1.34 1.36 0.68 0 0 Z " fill="#3479BE" transform="translate(703,861)"/>
<path d="M0 0 C1.65 0 3.3 0 5 0 C4.67 0.66 4.34 1.32 4 2 C3.34 1.67 2.68 1.34 2 1 C1.67 1.66 1.34 2.32 1 3 C0.67 2.01 0.34 1.02 0 0 Z " fill="#3379BE" transform="translate(615,861)"/>
<path d="M0 0 C1.98 0 3.96 0 6 0 C6 0.66 6 1.32 6 2 C3.03 1.505 3.03 1.505 0 1 C0 0.67 0 0.34 0 0 Z " fill="#3379BF" transform="translate(463,861)"/>
<path d="M0 0 C2.31 0 4.62 0 7 0 C6.67 0.66 6.34 1.32 6 2 C3.03 1.505 3.03 1.505 0 1 C0 0.67 0 0.34 0 0 Z " fill="#3379BE" transform="translate(375,861)"/>
<path d="M0 0 C1.65 0 3.3 0 5 0 C4.67 0.66 4.34 1.32 4 2 C2.68 1.67 1.36 1.34 0 1 C0 0.67 0 0.34 0 0 Z " fill="#3379BE" transform="translate(711,861)"/>
<path d="M0 0 C1.65 0 3.3 0 5 0 C4.67 0.66 4.34 1.32 4 2 C2.68 1.34 1.36 0.68 0 0 Z " fill="#347ABF" transform="translate(647,861)"/>
<path d="M0 0 C1.65 0 3.3 0 5 0 C5.33 0.66 5.66 1.32 6 2 C3.03 1.505 3.03 1.505 0 1 C0 0.67 0 0.34 0 0 Z " fill="#3379BF" transform="translate(631,861)"/>
<path d="M0 0 C1.65 0 3.3 0 5 0 C5.33 0.66 5.66 1.32 6 2 C3.03 1.505 3.03 1.505 0 1 C0 0.67 0 0.34 0 0 Z " fill="#3379BE" transform="translate(599,861)"/>
<path d="M0 0 C1.65 0 3.3 0 5 0 C5.33 0.66 5.66 1.32 6 2 C3.03 1.505 3.03 1.505 0 1 C0 0.67 0 0.34 0 0 Z " fill="#3379BF" transform="translate(527,861)"/>
<path d="M0 0 C1.65 0 3.3 0 5 0 C5.33 0.66 5.66 1.32 6 2 C3.03 1.505 3.03 1.505 0 1 C0 0.67 0 0.34 0 0 Z " fill="#3279BE" transform="translate(487,861)"/>
<path d="M0 0 C2.31 0 4.62 0 7 0 C7 0.33 7 0.66 7 1 C4.69 1 2.38 1 0 1 C0 0.67 0 0.34 0 0 Z " fill="#3378BF" transform="translate(447,861)"/>
<path d="M0 0 C1.98 0 3.96 0 6 0 C5.34 0.66 4.68 1.32 4 2 C2.68 1.34 1.36 0.68 0 0 Z " fill="#3278BE" transform="translate(296,861)"/>
<path d="M0 0 C2.31 0 4.62 0 7 0 C7 0.33 7 0.66 7 1 C4.69 1 2.38 1 0 1 C0 0.67 0 0.34 0 0 Z " fill="#3479BF" transform="translate(287,861)"/>
<path d="M0 0 C1.98 0 3.96 0 6 0 C5.34 0.66 4.68 1.32 4 2 C2.68 1.34 1.36 0.68 0 0 Z " fill="#3479BE" transform="translate(271,861)"/>
<path d="M0 0 C0.33 0 0.66 0 1 0 C1 2.31 1 4.62 1 7 C0.67 7 0.34 7 0 7 C0 4.69 0 2.38 0 0 Z " fill="#367DC0" transform="translate(208,698)"/>
<path d="M0 0 C0.66 0.66 1.32 1.32 2 2 C0.02 2 -1.96 2 -4 2 C-2.68 1.34 -1.36 0.68 0 0 Z " fill="#3876B5" transform="translate(278,296)"/>
<path d="M0 0 C1.65 0 3.3 0 5 0 C3.02 0.99 3.02 0.99 1 2 C0.67 1.34 0.34 0.68 0 0 Z " fill="#3479BD" transform="translate(735,861)"/>
<path d="M0 0 C1.65 0 3.3 0 5 0 C4.67 0.66 4.34 1.32 4 2 C2.68 1.34 1.36 0.68 0 0 Z " fill="#3479BE" transform="translate(687,861)"/>
<path d="M0 0 C2.475 0.495 2.475 0.495 5 1 C4.01 1.495 4.01 1.495 3 2 C2.01 1.34 1.02 0.68 0 0 Z " fill="#3379BE" transform="translate(576,861)"/>
<path d="M0 0 C1.65 0 3.3 0 5 0 C4.67 0.66 4.34 1.32 4 2 C2.68 1.34 1.36 0.68 0 0 Z " fill="#3378BE" transform="translate(511,861)"/>
<path d="M0 0 C1.32 0.33 2.64 0.66 4 1 C3.01 1.33 2.02 1.66 1 2 C0.67 1.34 0.34 0.68 0 0 Z " fill="#3379BF" transform="translate(353,861)"/>
<path d="M0 0 C2.475 0.495 2.475 0.495 5 1 C4.01 1.495 4.01 1.495 3 2 C2.01 1.34 1.02 0.68 0 0 Z " fill="#3378BC" transform="translate(264,861)"/>
<path d="M0 0 C0.33 0 0.66 0 1 0 C1 1.98 1 3.96 1 6 C0.67 6 0.34 6 0 6 C0 4.02 0 2.04 0 0 Z " fill="#3379BD" transform="translate(815,703)"/>
<path d="M0 0 C1.98 0 3.96 0 6 0 C6 0.33 6 0.66 6 1 C4.02 1 2.04 1 0 1 C0 0.67 0 0.34 0 0 Z " fill="#3A77B5" transform="translate(730,297)"/>
<path d="M0 0 C1.98 0 3.96 0 6 0 C6 0.33 6 0.66 6 1 C4.02 1 2.04 1 0 1 C0 0.67 0 0.34 0 0 Z " fill="#3A77B4" transform="translate(690,297)"/>
<path d="M0 0 C1.32 0.33 2.64 0.66 4 1 C2.68 1.33 1.36 1.66 0 2 C0 1.34 0 0.68 0 0 Z " fill="#3B77B5" transform="translate(304,296)"/>
<path d="M0 0 C1.65 0 3.3 0 5 0 C5 0.33 5 0.66 5 1 C3.35 1 1.7 1 0 1 C0 0.67 0 0.34 0 0 Z " fill="#347ABF" transform="translate(663,861)"/>
<path d="M0 0 C1.65 0 3.3 0 5 0 C5 0.33 5 0.66 5 1 C3.35 1 1.7 1 0 1 C0 0.67 0 0.34 0 0 Z " fill="#3479BF" transform="translate(655,861)"/>
<path d="M0 0 C1.32 0.33 2.64 0.66 4 1 C3.01 1.495 3.01 1.495 2 2 C1.34 1.34 0.68 0.68 0 0 Z " fill="#3379BF" transform="translate(457,861)"/>
<path d="M0 0 C0.33 0 0.66 0 1 0 C1 1.65 1 3.3 1 5 C0.67 5 0.34 5 0 5 C0 3.35 0 1.7 0 0 Z " fill="#377BBE" transform="translate(232,361)"/>
<path d="M0 0 C1.65 0 3.3 0 5 0 C5 0.33 5 0.66 5 1 C3.35 1 1.7 1 0 1 C0 0.67 0 0.34 0 0 Z " fill="#283745" transform="translate(531,152)"/>
<path d="M0 0 C1.65 0 3.3 0 5 0 C5 0.33 5 0.66 5 1 C3.35 1 1.7 1 0 1 C0 0.67 0 0.34 0 0 Z " fill="#2B3A47" transform="translate(485,152)"/>
<path d="M0 0 C0.66 0.66 1.32 1.32 2 2 C1.01 1.67 0.02 1.34 -1 1 C-0.67 0.67 -0.34 0.34 0 0 Z " fill="#3379BD" transform="translate(555,861)"/>
<path d="M0 0 C0.99 0 1.98 0 3 0 C2.67 0.66 2.34 1.32 2 2 C1.34 1.34 0.68 0.68 0 0 Z " fill="#347ABF" transform="translate(609,861)"/>
<path d="M0 0 C0.99 0.33 1.98 0.66 3 1 C2.01 1 1.02 1 0 1 C0 0.67 0 0.34 0 0 Z " fill="#347ABF" transform="translate(551,861)"/>
<path d="M0 0 C0.99 0.33 1.98 0.66 3 1 C2.01 1 1.02 1 0 1 C0 0.67 0 0.34 0 0 Z " fill="#3479BF" transform="translate(391,861)"/>
<path d="M0 0 C1 4 1 4 1 4 Z " fill="#367ABD" transform="translate(212,640)"/>
<path d="M0 0 C1 4 1 4 1 4 Z " fill="#367BC0" transform="translate(224,477)"/>
<path d="M0 0 C1 4 1 4 1 4 Z " fill="#377BBE" transform="translate(232,368)"/>
<path d="M0 0 C4 1 4 1 4 1 Z " fill="#3A73AE" transform="translate(674,297)"/>
<path d="M0 0 C4 1 4 1 4 1 Z " fill="#3B75B2" transform="translate(594,297)"/>
<path d="M0 0 C4 1 4 1 4 1 Z " fill="#3A76B3" transform="translate(580,297)"/>
<path d="M0 0 C4 1 4 1 4 1 Z " fill="#3C7AB9" transform="translate(516,297)"/>
<path d="M0 0 C4 1 4 1 4 1 Z " fill="#3C79BA" transform="translate(484,297)"/>
<path d="M0 0 C4 1 4 1 4 1 Z " fill="#3C72AC" transform="translate(418,297)"/>
<path d="M0 0 C4 1 4 1 4 1 Z " fill="#3B75B0" transform="translate(338,297)"/>
<path d="M0 0 C4 1 4 1 4 1 Z " fill="#3B77B4" transform="translate(324,297)"/>
<path d="M0 0 C1 4 1 4 1 4 Z " fill="#314F6D" transform="translate(624,285)"/>
<path d="M0 0 C0.66 0.66 1.32 1.32 2 2 C1.34 2 0.68 2 0 2 C0 1.34 0 0.68 0 0 Z " fill="#3379BF" transform="translate(507,861)"/>
<path d="M0 0 C0.66 0.66 1.32 1.32 2 2 C1.34 2 0.68 2 0 2 C0 1.34 0 0.68 0 0 Z " fill="#3479BD" transform="translate(331,861)"/>
<path d="M0 0 C0.66 0.66 1.32 1.32 2 2 C1.34 2 0.68 2 0 2 C0 1.34 0 0.68 0 0 Z " fill="#3378BD" transform="translate(283,861)"/>
<path d="M0 0 C3 1 3 1 3 1 Z " fill="#3479BD" transform="translate(751,861)"/>
<path d="M0 0 C3 1 3 1 3 1 Z " fill="#347ABF" transform="translate(639,861)"/>
<path d="M0 0 C3 1 3 1 3 1 Z " fill="#337ABE" transform="translate(583,861)"/>
<path d="M0 0 C3 1 3 1 3 1 Z " fill="#347AC0" transform="translate(503,861)"/>
<path d="M0 0 C3 1 3 1 3 1 Z " fill="#3479BF" transform="translate(495,861)"/>
<path d="M0 0 C3 1 3 1 3 1 Z " fill="#3278BE" transform="translate(441,861)"/>
<path d="M0 0 C3 1 3 1 3 1 Z " fill="#3379C0" transform="translate(425,861)"/>
<path d="M0 0 C3 1 3 1 3 1 Z " fill="#3479BF" transform="translate(343,861)"/>
<path d="M0 0 C3 1 3 1 3 1 Z " fill="#347AC0" transform="translate(327,861)"/>
<path d="M0 0 C3 1 3 1 3 1 Z " fill="#3479BE" transform="translate(279,861)"/>
<path d="M0 0 C3 1 3 1 3 1 Z " fill="#3477BB" transform="translate(256,861)"/>
<path d="M0 0 C0.99 0.495 0.99 0.495 2 1 C1.01 1.495 1.01 1.495 0 2 C0 1.34 0 0.68 0 0 Z " fill="#3579BB" transform="translate(770,860)"/>
<path d="" fill="#3579BA" transform="translate(0,0)"/>
<path d="" fill="#3578BA" transform="translate(0,0)"/>
<path d="" fill="#357ABE" transform="translate(0,0)"/>
<path d="" fill="#337ABD" transform="translate(0,0)"/>
<path d="" fill="#367BC0" transform="translate(0,0)"/>
<path d="M0 0 C3 1 3 1 3 1 Z " fill="#3674B4" transform="translate(748,297)"/>
<path d="M0 0 C3 1 3 1 3 1 Z " fill="#3C79B9" transform="translate(501,297)"/>
<path d="M0 0 C3 1 3 1 3 1 Z " fill="#3C78B8" transform="translate(454,297)"/>
<path d="M0 0 C3 1 3 1 3 1 Z " fill="#3A71AA" transform="translate(344,297)"/>
<path d="M0 0 C3 1 3 1 3 1 Z " fill="#3B77B6" transform="translate(293,297)"/>
<path d="M0 0 C0.99 0.495 0.99 0.495 2 1 C1.01 1.495 1.01 1.495 0 2 C0 1.34 0 0.68 0 0 Z " fill="#31608C" transform="translate(398,296)"/>
<path d="" fill="#30485F" transform="translate(0,0)"/>
<path d="M0 0 C0.99 0.495 0.99 0.495 2 1 C1.01 1.495 1.01 1.495 0 2 C0 1.34 0 0.68 0 0 Z " fill="#2D4259" transform="translate(370,256)"/>
<path d="" fill="#3479BE" transform="translate(0,0)"/>
<path d="M0 0 C2 1 2 1 2 1 Z " fill="#3379BD" transform="translate(621,862)"/>
<path d="" fill="#3479BE" transform="translate(0,0)"/>
<path d="" fill="#3478BF" transform="translate(0,0)"/>
<path d="M0 0 C2 1 2 1 2 1 Z " fill="#337ABF" transform="translate(568,861)"/>
<path d="M0 0 C2 1 2 1 2 1 Z " fill="#3477B9" transform="translate(249,860)"/>
<path d="M0 0 C2 1 2 1 2 1 Z " fill="#3678B8" transform="translate(778,859)"/>
<path d="" fill="#3275B5" transform="translate(0,0)"/>
<path d="M0 0 C2 1 2 1 2 1 Z " fill="#3375B5" transform="translate(201,818)"/>
<path d="M0 0 C2 1 2 1 2 1 Z " fill="#3579BA" transform="translate(201,787)"/>
<path d="" fill="#3479BA" transform="translate(0,0)"/>
<path d="" fill="#3478BA" transform="translate(0,0)"/>
<path d="" fill="#347ABE" transform="translate(0,0)"/>
<path d="" fill="#347ABE" transform="translate(0,0)"/>
<path d="" fill="#377BBE" transform="translate(0,0)"/>
<path d="" fill="#347ABF" transform="translate(0,0)"/>
<path d="" fill="#367ABF" transform="translate(0,0)"/>
<path d="" fill="#367CBF" transform="translate(0,0)"/>
<path d="" fill="#377BBD" transform="translate(0,0)"/>
<path d="" fill="#347ABE" transform="translate(0,0)"/>
<path d="" fill="#3479BE" transform="translate(0,0)"/>
<path d="M0 0 C2 1 2 1 2 1 Z " fill="#3B78B6" transform="translate(740,297)"/>
<path d="M0 0 C2 1 2 1 2 1 Z " fill="#3C77B5" transform="translate(711,297)"/>
<path d="M0 0 C2 1 2 1 2 1 Z " fill="#3A76B4" transform="translate(698,297)"/>
<path d="M0 0 C2 1 2 1 2 1 Z " fill="#3C79B7" transform="translate(566,297)"/>
<path d="M0 0 C2 1 2 1 2 1 Z " fill="#3D7AB8" transform="translate(540,297)"/>
<path d="M0 0 C2 1 2 1 2 1 Z " fill="#3B78B7" transform="translate(476,297)"/>
<path d="M0 0 C2 1 2 1 2 1 Z " fill="#3A79B8" transform="translate(460,297)"/>
<path d="M0 0 C2 1 2 1 2 1 Z " fill="#3C79B7" transform="translate(444,297)"/>
<path d="M0 0 C2 1 2 1 2 1 Z " fill="#3D78B4" transform="translate(436,297)"/>
<path d="M0 0 C2 1 2 1 2 1 Z " fill="#3B76B2" transform="translate(426,297)"/>
<path d="M0 0 C2 1 2 1 2 1 Z " fill="#396798" transform="translate(404,297)"/>
<path d="M0 0 C2 1 2 1 2 1 Z " fill="#3B76B2" transform="translate(332,297)"/>
<path d="M0 0 C2 1 2 1 2 1 Z " fill="#3C78B4" transform="translate(321,297)"/>
<path d="M0 0 C2 1 2 1 2 1 Z " fill="#3D78B6" transform="translate(290,297)"/>
<path d="" fill="#355D80" transform="translate(0,0)"/>
<path d="" fill="#31485E" transform="translate(0,0)"/>
<path d="" fill="#2E455B" transform="translate(0,0)"/>
<path d="" fill="#2E4257" transform="translate(0,0)"/>
<path d="" fill="#2E4256" transform="translate(0,0)"/>
<path d="" fill="#2E4154" transform="translate(0,0)"/>
<path d="M0 0 C2 1 2 1 2 1 Z " fill="#2E3F51" transform="translate(595,223)"/>
<path d="M0 0 C2 1 2 1 2 1 Z " fill="#2E4053" transform="translate(592,223)"/>
<path d="M0 0 C2 1 2 1 2 1 Z " fill="#2A3B4B" transform="translate(392,211)"/>
<path d="M0 0 C2 1 2 1 2 1 Z " fill="#2C3E50" transform="translate(576,206)"/>
<path d="M0 0 C2 1 2 1 2 1 Z " fill="#2E3F50" transform="translate(460,199)"/>
<path d="M0 0 C2 1 2 1 2 1 Z " fill="#2F4051" transform="translate(560,196)"/>
<path d="M0 0 C2 1 2 1 2 1 Z " fill="#2B394A" transform="translate(409,192)"/>
<path d="M0 0 C2 1 2 1 2 1 Z " fill="#2C3C4A" transform="translate(418,184)"/>
<path d="M0 0 C2 1 2 1 2 1 Z " fill="#2C3B47" transform="translate(472,155)"/>
<path d="M0 0 C2 1 2 1 2 1 Z " fill="#2A3B47" transform="translate(483,153)"/>
<path d="" fill="#3276BB" transform="translate(0,0)"/>
<path d="" fill="#3378BB" transform="translate(0,0)"/>
<path d="" fill="#3378BC" transform="translate(0,0)"/>
<path d="" fill="#3278BC" transform="translate(0,0)"/>
<path d="" fill="#3377BC" transform="translate(0,0)"/>
<path d="" fill="#3377BC" transform="translate(0,0)"/>
<path d="" fill="#3278BB" transform="translate(0,0)"/>
<path d="" fill="#3379BC" transform="translate(0,0)"/>
<path d="" fill="#3477BA" transform="translate(0,0)"/>
<path d="" fill="#3278BA" transform="translate(0,0)"/>
<path d="" fill="#3477BA" transform="translate(0,0)"/>
<path d="" fill="#3479BB" transform="translate(0,0)"/>
<path d="" fill="#3478BC" transform="translate(0,0)"/>
<path d="" fill="#337ABE" transform="translate(0,0)"/>
<path d="" fill="#3379BD" transform="translate(0,0)"/>
<path d="" fill="#3378BD" transform="translate(0,0)"/>
<path d="" fill="#3478BF" transform="translate(0,0)"/>
<path d="" fill="#337ABE" transform="translate(0,0)"/>
<path d="" fill="#3477BE" transform="translate(0,0)"/>
<path d="" fill="#3478BE" transform="translate(0,0)"/>
<path d="" fill="#3678BA" transform="translate(0,0)"/>
<path d="" fill="#3579BC" transform="translate(0,0)"/>
<path d="" fill="#3579BE" transform="translate(0,0)"/>
<path d="" fill="#3579BF" transform="translate(0,0)"/>
<path d="" fill="#3479BF" transform="translate(0,0)"/>
<path d="" fill="#337AC0" transform="translate(0,0)"/>
<path d="" fill="#337AC0" transform="translate(0,0)"/>
<path d="" fill="#3579C0" transform="translate(0,0)"/>
<path d="" fill="#347AC0" transform="translate(0,0)"/>
<path d="" fill="#3379BE" transform="translate(0,0)"/>
<path d="" fill="#3579BE" transform="translate(0,0)"/>
<path d="" fill="#347BC0" transform="translate(0,0)"/>
<path d="" fill="#357AC0" transform="translate(0,0)"/>
<path d="" fill="#357ABF" transform="translate(0,0)"/>
<path d="" fill="#3378BF" transform="translate(0,0)"/>
<path d="" fill="#3579C0" transform="translate(0,0)"/>
<path d="" fill="#337AC0" transform="translate(0,0)"/>
<path d="" fill="#347AC1" transform="translate(0,0)"/>
<path d="" fill="#3478BD" transform="translate(0,0)"/>
<path d="" fill="#3577B9" transform="translate(0,0)"/>
<path d="" fill="#3679BB" transform="translate(0,0)"/>
<path d="" fill="#3577B5" transform="translate(0,0)"/>
<path d="" fill="#347ABE" transform="translate(0,0)"/>
<path d="" fill="#3476B8" transform="translate(0,0)"/>
<path d="" fill="#3475B7" transform="translate(0,0)"/>
<path d="" fill="#3678B7" transform="translate(0,0)"/>
<path d="" fill="#3475B6" transform="translate(0,0)"/>
<path d="" fill="#3477B7" transform="translate(0,0)"/>
<path d="" fill="#3579B6" transform="translate(0,0)"/>
<path d="" fill="#3577B6" transform="translate(0,0)"/>
<path d="" fill="#3576B7" transform="translate(0,0)"/>
<path d="" fill="#3177B5" transform="translate(0,0)"/>
<path d="" fill="#3375B5" transform="translate(0,0)"/>
<path d="" fill="#3575B6" transform="translate(0,0)"/>
<path d="" fill="#3675B6" transform="translate(0,0)"/>
<path d="" fill="#377ABA" transform="translate(0,0)"/>
<path d="" fill="#377ABD" transform="translate(0,0)"/>
<path d="" fill="#3678BA" transform="translate(0,0)"/>
<path d="" fill="#3679BC" transform="translate(0,0)"/>
<path d="" fill="#357AB8" transform="translate(0,0)"/>
<path d="" fill="#3377BA" transform="translate(0,0)"/>
<path d="" fill="#347ABB" transform="translate(0,0)"/>
<path d="" fill="#3478BC" transform="translate(0,0)"/>
<path d="" fill="#3679BA" transform="translate(0,0)"/>
<path d="" fill="#3577B9" transform="translate(0,0)"/>
<path d="" fill="#357ABB" transform="translate(0,0)"/>
<path d="" fill="#367ABC" transform="translate(0,0)"/>
<path d="" fill="#3479B8" transform="translate(0,0)"/>
<path d="" fill="#3479B9" transform="translate(0,0)"/>
<path d="" fill="#3579BA" transform="translate(0,0)"/>
<path d="" fill="#357BC0" transform="translate(0,0)"/>
<path d="" fill="#357BC0" transform="translate(0,0)"/>
<path d="" fill="#357BC0" transform="translate(0,0)"/>
<path d="" fill="#347CBF" transform="translate(0,0)"/>
<path d="" fill="#367CC1" transform="translate(0,0)"/>
<path d="" fill="#3579BB" transform="translate(0,0)"/>
<path d="" fill="#3577BA" transform="translate(0,0)"/>
<path d="" fill="#367ABA" transform="translate(0,0)"/>
<path d="" fill="#337BC0" transform="translate(0,0)"/>
<path d="" fill="#367BC0" transform="translate(0,0)"/>
<path d="" fill="#357ABE" transform="translate(0,0)"/>
<path d="" fill="#367ABE" transform="translate(0,0)"/>
<path d="" fill="#3679BE" transform="translate(0,0)"/>
<path d="" fill="#367BBF" transform="translate(0,0)"/>
<path d="" fill="#347CBD" transform="translate(0,0)"/>
<path d="" fill="#357ABD" transform="translate(0,0)"/>
<path d="" fill="#3577BD" transform="translate(0,0)"/>
<path d="" fill="#377ABC" transform="translate(0,0)"/>
<path d="" fill="#3878BB" transform="translate(0,0)"/>
<path d="" fill="#367CBE" transform="translate(0,0)"/>
<path d="" fill="#367BBC" transform="translate(0,0)"/>
<path d="" fill="#377ABB" transform="translate(0,0)"/>
<path d="" fill="#357BBE" transform="translate(0,0)"/>
<path d="" fill="#367ABD" transform="translate(0,0)"/>
<path d="" fill="#3679BE" transform="translate(0,0)"/>
<path d="" fill="#357ABE" transform="translate(0,0)"/>
<path d="" fill="#387BBC" transform="translate(0,0)"/>
<path d="" fill="#3578BB" transform="translate(0,0)"/>
<path d="" fill="#377BBE" transform="translate(0,0)"/>
<path d="" fill="#3478BF" transform="translate(0,0)"/>
<path d="" fill="#377ABD" transform="translate(0,0)"/>
<path d="" fill="#3879BB" transform="translate(0,0)"/>
<path d="" fill="#387BBC" transform="translate(0,0)"/>
<path d="" fill="#3675B5" transform="translate(0,0)"/>
<path d="" fill="#3775B4" transform="translate(0,0)"/>
<path d="" fill="#3475B5" transform="translate(0,0)"/>
<path d="" fill="#3576B4" transform="translate(0,0)"/>
<path d="" fill="#3574B1" transform="translate(0,0)"/>
<path d="" fill="#3773B1" transform="translate(0,0)"/>
<path d="" fill="#3777B1" transform="translate(0,0)"/>
<path d="" fill="#3877B5" transform="translate(0,0)"/>
<path d="" fill="#3474B2" transform="translate(0,0)"/>
<path d="" fill="#3778B4" transform="translate(0,0)"/>
<path d="" fill="#3775B5" transform="translate(0,0)"/>
<path d="" fill="#3874B2" transform="translate(0,0)"/>
<path d="" fill="#3976B4" transform="translate(0,0)"/>
<path d="" fill="#3C78B6" transform="translate(0,0)"/>
<path d="" fill="#3B78B5" transform="translate(0,0)"/>
<path d="" fill="#3A79B6" transform="translate(0,0)"/>
<path d="" fill="#3C78B8" transform="translate(0,0)"/>
<path d="" fill="#3D78B6" transform="translate(0,0)"/>
<path d="" fill="#3C77B5" transform="translate(0,0)"/>
<path d="" fill="#3A77B6" transform="translate(0,0)"/>
<path d="" fill="#3C77B7" transform="translate(0,0)"/>
<path d="" fill="#3976B5" transform="translate(0,0)"/>
<path d="" fill="#3A74B1" transform="translate(0,0)"/>
<path d="" fill="#3A75B0" transform="translate(0,0)"/>
<path d="" fill="#3A75B2" transform="translate(0,0)"/>
<path d="" fill="#3A73AE" transform="translate(0,0)"/>
<path d="" fill="#376DA6" transform="translate(0,0)"/>
<path d="" fill="#3A6BA2" transform="translate(0,0)"/>
<path d="" fill="#376394" transform="translate(0,0)"/>
<path d="" fill="#386CA1" transform="translate(0,0)"/>
<path d="" fill="#3A6EA4" transform="translate(0,0)"/>
<path d="" fill="#3A70AB" transform="translate(0,0)"/>
<path d="" fill="#3A71AC" transform="translate(0,0)"/>
<path d="" fill="#3E77B4" transform="translate(0,0)"/>
<path d="" fill="#3B77B5" transform="translate(0,0)"/>
<path d="" fill="#3A76B3" transform="translate(0,0)"/>
<path d="" fill="#3B78B5" transform="translate(0,0)"/>
<path d="" fill="#3C77B6" transform="translate(0,0)"/>
<path d="" fill="#3D7AB9" transform="translate(0,0)"/>
<path d="" fill="#3D7AB8" transform="translate(0,0)"/>
<path d="" fill="#3F7BBA" transform="translate(0,0)"/>
<path d="" fill="#3C79B8" transform="translate(0,0)"/>
<path d="" fill="#3C7AB9" transform="translate(0,0)"/>
<path d="" fill="#3D7AB8" transform="translate(0,0)"/>
<path d="" fill="#3B7ABA" transform="translate(0,0)"/>
<path d="" fill="#3D7BB9" transform="translate(0,0)"/>
<path d="" fill="#3C78B8" transform="translate(0,0)"/>
<path d="" fill="#3D7ABA" transform="translate(0,0)"/>
<path d="" fill="#3B7BB9" transform="translate(0,0)"/>
<path d="" fill="#3C7ABB" transform="translate(0,0)"/>
<path d="" fill="#3D7BBA" transform="translate(0,0)"/>
<path d="" fill="#3B7BBA" transform="translate(0,0)"/>
<path d="" fill="#3A7BBA" transform="translate(0,0)"/>
<path d="" fill="#3C7ABA" transform="translate(0,0)"/>
<path d="" fill="#3D7AB9" transform="translate(0,0)"/>
<path d="" fill="#3B79BA" transform="translate(0,0)"/>
<path d="" fill="#3E79BA" transform="translate(0,0)"/>
<path d="" fill="#3B79BB" transform="translate(0,0)"/>
<path d="" fill="#3B7BB8" transform="translate(0,0)"/>
<path d="" fill="#3D79B9" transform="translate(0,0)"/>
<path d="" fill="#3A78B7" transform="translate(0,0)"/>
<path d="" fill="#3B79B7" transform="translate(0,0)"/>
<path d="" fill="#3B7AB7" transform="translate(0,0)"/>
<path d="" fill="#3D77B7" transform="translate(0,0)"/>
<path d="" fill="#3D77B6" transform="translate(0,0)"/>
<path d="" fill="#3B77B5" transform="translate(0,0)"/>
<path d="" fill="#3D77B4" transform="translate(0,0)"/>
<path d="" fill="#3B75B1" transform="translate(0,0)"/>
<path d="" fill="#3C6CA2" transform="translate(0,0)"/>
<path d="" fill="#3B6595" transform="translate(0,0)"/>
<path d="" fill="#3B6A9D" transform="translate(0,0)"/>
<path d="" fill="#3970A7" transform="translate(0,0)"/>
<path d="" fill="#3C78B4" transform="translate(0,0)"/>
<path d="" fill="#3A75B2" transform="translate(0,0)"/>
<path d="" fill="#3B78B5" transform="translate(0,0)"/>
<path d="" fill="#3A77B6" transform="translate(0,0)"/>
<path d="" fill="#3C79B7" transform="translate(0,0)"/>
<path d="" fill="#3E79B7" transform="translate(0,0)"/>
<path d="" fill="#3D78B7" transform="translate(0,0)"/>
<path d="" fill="#3C78B8" transform="translate(0,0)"/>
<path d="" fill="#3875B2" transform="translate(0,0)"/>
<path d="" fill="#3870A9" transform="translate(0,0)"/>
<path d="" fill="#3B77B6" transform="translate(0,0)"/>
<path d="" fill="#37628F" transform="translate(0,0)"/>
<path d="" fill="#375E8A" transform="translate(0,0)"/>
<path d="" fill="#3B76B4" transform="translate(0,0)"/>
<path d="" fill="#3976B5" transform="translate(0,0)"/>
<path d="" fill="#3572AF" transform="translate(0,0)"/>
<path d="" fill="#36587A" transform="translate(0,0)"/>
<path d="" fill="#31597C" transform="translate(0,0)"/>
<path d="" fill="#315579" transform="translate(0,0)"/>
<path d="" fill="#2F485E" transform="translate(0,0)"/>
<path d="" fill="#2E475E" transform="translate(0,0)"/>
<path d="" fill="#30475F" transform="translate(0,0)"/>
<path d="" fill="#32495E" transform="translate(0,0)"/>
<path d="" fill="#2E445C" transform="translate(0,0)"/>
<path d="" fill="#2E4357" transform="translate(0,0)"/>
<path d="" fill="#2F4259" transform="translate(0,0)"/>
<path d="" fill="#30475B" transform="translate(0,0)"/>
<path d="" fill="#30485D" transform="translate(0,0)"/>
<path d="" fill="#2C4257" transform="translate(0,0)"/>
<path d="" fill="#2E465B" transform="translate(0,0)"/>
<path d="" fill="#2D4258" transform="translate(0,0)"/>
<path d="" fill="#2C4152" transform="translate(0,0)"/>
<path d="" fill="#2D4154" transform="translate(0,0)"/>
<path d="" fill="#2D4255" transform="translate(0,0)"/>
<path d="" fill="#2E4054" transform="translate(0,0)"/>
<path d="" fill="#2C4153" transform="translate(0,0)"/>
<path d="" fill="#2E4457" transform="translate(0,0)"/>
<path d="" fill="#2D4156" transform="translate(0,0)"/>
<path d="" fill="#2E4557" transform="translate(0,0)"/>
<path d="" fill="#2E4257" transform="translate(0,0)"/>
<path d="" fill="#2C4054" transform="translate(0,0)"/>
<path d="" fill="#2B3E4D" transform="translate(0,0)"/>
<path d="" fill="#2C3D4E" transform="translate(0,0)"/>
<path d="" fill="#2D4153" transform="translate(0,0)"/>
<path d="" fill="#2A3C4C" transform="translate(0,0)"/>
<path d="" fill="#2B3D4F" transform="translate(0,0)"/>
<path d="" fill="#303F55" transform="translate(0,0)"/>
<path d="" fill="#283946" transform="translate(0,0)"/>
<path d="" fill="#293949" transform="translate(0,0)"/>
<path d="" fill="#30404F" transform="translate(0,0)"/>
<path d="" fill="#2E3D4F" transform="translate(0,0)"/>
<path d="" fill="#2C3C4C" transform="translate(0,0)"/>
<path d="" fill="#2E3F52" transform="translate(0,0)"/>
<path d="" fill="#2E4052" transform="translate(0,0)"/>
<path d="" fill="#2C3E51" transform="translate(0,0)"/>
<path d="" fill="#2A3947" transform="translate(0,0)"/>
<path d="" fill="#2D3D4E" transform="translate(0,0)"/>
<path d="" fill="#2E3E51" transform="translate(0,0)"/>
<path d="" fill="#2C3A49" transform="translate(0,0)"/>
<path d="" fill="#2B3D4E" transform="translate(0,0)"/>
<path d="" fill="#2E3F50" transform="translate(0,0)"/>
<path d="" fill="#2C3C4E" transform="translate(0,0)"/>
<path d="" fill="#263644" transform="translate(0,0)"/>
<path d="" fill="#2C3E4F" transform="translate(0,0)"/>
<path d="" fill="#2F3E4F" transform="translate(0,0)"/>
<path d="" fill="#2E3F4E" transform="translate(0,0)"/>
<path d="" fill="#2B3846" transform="translate(0,0)"/>
<path d="" fill="#2D3B4C" transform="translate(0,0)"/>
<path d="" fill="#283946" transform="translate(0,0)"/>
<path d="" fill="#2D3E52" transform="translate(0,0)"/>
<path d="" fill="#273746" transform="translate(0,0)"/>
<path d="" fill="#2F3F4E" transform="translate(0,0)"/>
<path d="" fill="#304151" transform="translate(0,0)"/>
<path d="" fill="#324253" transform="translate(0,0)"/>
<path d="" fill="#2E404F" transform="translate(0,0)"/>
<path d="" fill="#2C3D4C" transform="translate(0,0)"/>
<path d="" fill="#2E3D4E" transform="translate(0,0)"/>
<path d="" fill="#283A49" transform="translate(0,0)"/>
<path d="" fill="#2F3F52" transform="translate(0,0)"/>
<path d="" fill="#2A3A47" transform="translate(0,0)"/>
<path d="" fill="#2A3845" transform="translate(0,0)"/>
<path d="" fill="#293948" transform="translate(0,0)"/>
<path d="" fill="#2C3745" transform="translate(0,0)"/>
<path d="" fill="#2C3746" transform="translate(0,0)"/>
<path d="" fill="#2A3947" transform="translate(0,0)"/>
<path d="" fill="#2A3848" transform="translate(0,0)"/>
<path d="" fill="#283645" transform="translate(0,0)"/>
<path d="" fill="#2B3944" transform="translate(0,0)"/>
<path d="" fill="#2E3B46" transform="translate(0,0)"/>
<path d="" fill="#2B3A47" transform="translate(0,0)"/>
<path d="" fill="#273A46" transform="translate(0,0)"/>
<path d="" fill="#2C3A46" transform="translate(0,0)"/>
<path d="" fill="#2C3B48" transform="translate(0,0)"/>
<path d="" fill="#2B3A48" transform="translate(0,0)"/>
<path d="" fill="#2A3B47" transform="translate(0,0)"/>
<path d="" fill="#2A3A48" transform="translate(0,0)"/>
</svg>
